<svg width="8" height="14" viewBox="0 0 8 14" fill="none" xmlns="http://www.w3.org/2000/svg">
<path d="M2.23748 13.2501L7.53748 7.88762C7.65464 7.77142 7.74763 7.63316 7.81109 7.48084C7.87455 7.32852 7.90723 7.16513 7.90723 7.00012C7.90723 6.8351 7.87455 6.67172 7.81109 6.5194C7.74763 6.36707 7.65464 6.22882 7.53748 6.11262L2.23748 0.812619C2.12128 0.695458 1.98302 0.602465 1.8307 0.539004C1.67838 0.475543 1.51499 0.442871 1.34998 0.442871C1.18496 0.442871 1.02158 0.475543 0.869258 0.539004C0.716935 0.602465 0.578683 0.695458 0.46248 0.812619C0.229666 1.04682 0.098989 1.36364 0.098989 1.69387C0.0989889 2.0241 0.229666 2.34092 0.462479 2.57512L4.88748 7.00012L0.462479 11.4251C0.231549 11.6579 0.10136 11.9722 0.0999794 12.3001C0.0990281 12.4646 0.130559 12.6277 0.192765 12.78C0.25497 12.9323 0.346627 13.0708 0.462479 13.1876C0.574501 13.309 0.709459 13.4069 0.859553 13.4758C1.00965 13.5447 1.1719 13.5831 1.33695 13.5889C1.50199 13.5948 1.66655 13.5678 1.82112 13.5096C1.97569 13.4515 2.1172 13.3633 2.23748 13.2501Z" fill="white"/>
</svg>
