<svg width="27" height="9" viewBox="0 0 27 9" fill="none" xmlns="http://www.w3.org/2000/svg">
<path d="M0.5 4C0.223858 4 0 4.22386 0 4.5C0 4.77614 0.223858 5 0.5 5V4ZM26.8536 4.85355C27.0488 4.65829 27.0488 4.34171 26.8536 4.14645L23.6716 0.964466C23.4763 0.769204 23.1597 0.769204 22.9645 0.964466C22.7692 1.15973 22.7692 1.47631 22.9645 1.67157L25.7929 4.5L22.9645 7.32843C22.7692 7.52369 22.7692 7.84027 22.9645 8.03553C23.1597 8.2308 23.4763 8.2308 23.6716 8.03553L26.8536 4.85355ZM0.5 5L26.5 5V4L0.5 4V5Z" fill="white"/>
</svg>
