<?xml version="1.0" encoding="utf-8"?>
<!-- Generator: Adobe Illustrator 23.0.1, SVG Export Plug-In . SVG Version: 6.00 Build 0)  -->
<svg version="1.1" id="Слой_1" xmlns="http://www.w3.org/2000/svg" xmlns:xlink="http://www.w3.org/1999/xlink" x="0px" y="0px"
	 viewBox="0 0 8 14" style="enable-background:new 0 0 8 14;" xml:space="preserve">
<style type="text/css">
	.st0{fill:#FFFFFF;}
</style>
<path class="st0" d="M5.8,0.8L0.5,6.1C0.4,6.3,0.3,6.4,0.2,6.6C0.1,6.7,0.1,6.9,0.1,7c0,0.2,0,0.3,0.1,0.5c0.1,0.2,0.2,0.3,0.3,0.4
	l5.3,5.3c0.1,0.1,0.3,0.2,0.4,0.3c0.2,0.1,0.3,0.1,0.5,0.1c0.2,0,0.3,0,0.5-0.1c0.2-0.1,0.3-0.2,0.4-0.3c0.2-0.2,0.4-0.6,0.4-0.9
	s-0.1-0.6-0.4-0.9L3.1,7l4.4-4.4c0.2-0.2,0.4-0.5,0.4-0.9c0-0.2,0-0.3-0.1-0.5C7.8,1.1,7.7,1,7.5,0.8C7.4,0.7,7.3,0.6,7.1,0.6
	C7,0.5,6.8,0.4,6.7,0.4c-0.2,0-0.3,0-0.5,0.1C6,0.6,5.9,0.7,5.8,0.8z"/>
</svg>
