<svg width="18" height="17" viewBox="0 0 18 17" fill="none" xmlns="http://www.w3.org/2000/svg">
<path d="M9.16683 0.166504C7.51866 0.166504 5.90749 0.655245 4.53708 1.57092C3.16667 2.4866 2.09857 3.78809 1.46784 5.31081C0.837107 6.83353 0.672079 8.50908 0.993622 10.1256C1.31517 11.7421 2.10884 13.227 3.27428 14.3924C4.43971 15.5578 5.92457 16.3515 7.54108 16.673C9.15759 16.9946 10.8331 16.8296 12.3559 16.1988C13.8786 15.5681 15.1801 14.5 16.0957 13.1296C17.0114 11.7592 17.5002 10.148 17.5002 8.49984C17.5002 7.40549 17.2846 6.32185 16.8658 5.31081C16.447 4.29976 15.8332 3.3811 15.0594 2.60728C14.2856 1.83346 13.3669 1.21963 12.3559 0.800841C11.3448 0.382052 10.2612 0.166504 9.16683 0.166504ZM9.16683 15.1665C7.84829 15.1665 6.55936 14.7755 5.46303 14.043C4.3667 13.3104 3.51222 12.2692 3.00764 11.0511C2.50305 9.83288 2.37103 8.49244 2.62826 7.19923C2.8855 5.90603 3.52044 4.71814 4.45279 3.78579C5.38514 2.85344 6.57302 2.2185 7.86623 1.96127C9.15944 1.70403 10.4999 1.83606 11.7181 2.34064C12.9362 2.84522 13.9774 3.69971 14.71 4.79604C15.4425 5.89236 15.8335 7.18129 15.8335 8.49984C15.8335 10.2679 15.1311 11.9636 13.8809 13.2139C12.6306 14.4641 10.9349 15.1665 9.16683 15.1665ZM11.7502 9.02484L10.0002 8.0165V4.33317C10.0002 4.11216 9.91237 3.9002 9.75609 3.74391C9.59981 3.58763 9.38785 3.49984 9.16683 3.49984C8.94582 3.49984 8.73386 3.58763 8.57758 3.74391C8.4213 3.9002 8.3335 4.11216 8.3335 4.33317V8.49984C8.3335 8.49984 8.3335 8.5665 8.3335 8.59984C8.33843 8.65725 8.3525 8.71352 8.37517 8.7665C8.39233 8.81594 8.41467 8.86343 8.44183 8.90817C8.46464 8.95554 8.49258 9.00025 8.52517 9.0415L8.6585 9.14984L8.7335 9.22484L10.9002 10.4748C11.0272 10.5468 11.1709 10.5842 11.3168 10.5832C11.5013 10.5845 11.6811 10.5245 11.8278 10.4126C11.9746 10.3008 12.08 10.1434 12.1277 9.96511C12.1754 9.78685 12.1625 9.59782 12.0912 9.42765C12.0198 9.25748 11.894 9.11581 11.7335 9.02484H11.7502Z" fill="white"/>
</svg>
