<svg width="24" height="24" viewBox="0 0 24 24" fill="none" xmlns="http://www.w3.org/2000/svg">
<g clip-path="url(#clip0_2_1306)">
<path d="M14.5043 16.9211C14.5043 16.9211 16.4478 15.8084 16.9566 15.5411C17.4639 15.2727 17.9895 15.2051 18.3087 15.3999C18.7921 15.6956 22.851 18.3956 23.1927 18.6347C23.5345 18.8742 23.6991 19.5582 23.2292 20.2283C22.7612 20.8983 20.6022 23.548 19.6873 23.5196C18.771 23.4899 14.9612 23.4064 7.77706 16.2203C0.594339 9.03659 0.509379 5.22587 0.480099 4.30955C0.450819 3.39371 3.10042 1.23419 3.7705 0.76571C4.44154 0.29771 5.1265 0.47387 5.36458 0.80315C5.6353 1.17803 8.3041 5.22395 8.59786 5.68763C8.79898 6.00443 8.72506 6.53291 8.45674 7.04075C8.18986 7.54955 7.07722 9.49307 7.07722 9.49307C7.07722 9.49307 7.86154 10.8308 10.514 13.4828C13.167 16.1353 14.5043 16.9211 14.5043 16.9211Z" stroke="#FF902C" stroke-width="2" stroke-miterlimit="10"/>
</g>
<defs>
<clipPath id="clip0_2_1306">
<rect width="24" height="24" fill="white"/>
</clipPath>
</defs>
</svg>
