<svg width="40" height="30" viewBox="0 0 40 30" fill="none" xmlns="http://www.w3.org/2000/svg">
<path fill-rule="evenodd" clip-rule="evenodd" d="M2.28906 0.465637C1.40484 0.595247 0.627031 1.1747 0.217266 2.00907L0 2.45158V12.8031V23.1547L0.215781 23.5942C0.470313 24.1124 1.06789 24.6988 1.58461 24.9376C1.91336 25.0895 2.11016 25.1106 3.40945 25.1333L4.8657 25.1588L5.10828 25.837C5.9068 28.0693 7.98469 29.5321 10.3572 29.5321C12.0514 29.5321 13.542 28.8324 14.6693 27.5081C15.0668 27.041 15.5907 26.0477 15.7395 25.4789L15.8263 25.1469L21.4288 25.1476L27.0313 25.1484L27.2043 25.714C27.4538 26.5294 27.8806 27.2071 28.5938 27.9203C29.6745 29.0011 30.9531 29.527 32.5 29.527C34.9326 29.527 36.9927 28.0496 37.7816 25.7396C37.9919 25.1237 38.0077 25.1024 38.4102 24.8925C38.9593 24.6063 39.452 24.1106 39.7106 23.5844L39.9219 23.1547L39.9441 19.2783C39.9662 15.4497 39.9643 15.3961 39.7948 14.9424C39.6692 14.6063 39.4952 14.355 39.1475 14.0072C38.5689 13.4287 38.0246 13.1938 37.2627 13.1938C36.985 13.1938 36.7577 13.1674 36.7574 13.1352C36.7561 12.936 35.2537 6.46853 35.1624 6.26923C34.9849 5.88165 34.5998 5.49134 34.1983 5.29189C33.8305 5.10915 33.808 5.1079 30.6119 5.08306L27.3956 5.05798L27.369 3.71572C27.3434 2.42486 27.3341 2.35767 27.1256 1.96064C26.6941 1.13923 25.9586 0.614074 25.0283 0.463059C24.4229 0.364855 2.95992 0.367278 2.28906 0.465637ZM7.47797 6.00064C7.49938 9.1115 7.50445 9.20408 7.66445 9.41861C7.89586 9.729 8.2807 9.93384 8.63242 9.93384C8.83406 9.93384 9.71438 9.62095 11.3145 8.98048L13.6965 8.02704L16.0586 8.98048C17.6309 9.61509 18.5195 9.93384 18.7162 9.93384C19.0848 9.93384 19.477 9.71041 19.7068 9.36939C19.8822 9.10908 19.8828 9.09697 19.8828 5.95564V2.80314H22.3382C24.4662 2.80314 24.8099 2.81954 24.9163 2.92587C25.0266 3.03618 25.0391 4.05079 25.0391 12.9259V22.8031H20.4352H15.8314L15.7016 22.3539C15.1833 20.5591 13.667 19.0967 11.7812 18.5731C11.008 18.3583 9.77078 18.3436 9.02344 18.5403C7.14438 19.0347 5.62875 20.4536 5.0332 22.2758L4.86086 22.8031H3.73899C2.72133 22.8031 2.60266 22.7886 2.46094 22.6469C2.30641 22.4924 2.30469 22.3865 2.30469 12.8206C2.30469 4.19478 2.31781 3.13165 2.42633 2.97681C2.54758 2.80361 2.55461 2.80314 5.00195 2.80314H7.45594L7.47797 6.00064ZM17.5391 4.87345C17.5391 6.23587 17.5116 6.94376 17.459 6.94376C17.4149 6.94376 16.5953 6.62736 15.6377 6.24064C14.6802 5.85392 13.8024 5.53751 13.6873 5.53751C13.5722 5.53751 12.6863 5.85392 11.7188 6.24064C10.7512 6.62736 9.94219 6.94376 9.92117 6.94376C9.90008 6.94376 9.88281 6.01212 9.88281 4.87345V2.80314H13.7109H17.5391V4.87345ZM33.6405 10.1543C33.9674 11.5978 34.2583 12.8726 34.287 12.9871L34.3393 13.1954L30.8806 13.175L27.4219 13.1547L27.4014 10.3217L27.3809 7.48869L30.2135 7.50923L33.0462 7.5297L33.6405 10.1543ZM16.3672 12.3112C15.4166 12.6804 15.2863 13.9642 16.147 14.4828C16.3929 14.631 16.5448 14.6391 19.1016 14.6391C21.6648 14.6391 21.8102 14.6313 22.0703 14.481C22.2307 14.3884 22.4184 14.1784 22.5244 13.9732C22.8178 13.4052 22.6752 12.8723 22.1184 12.4564C21.9113 12.3017 21.7959 12.2947 19.1936 12.2805C17.7035 12.2723 16.4316 12.2861 16.3672 12.3112ZM37.4956 15.7112C37.6003 15.8607 37.6172 16.2856 37.6172 18.7758V21.6667L37.3242 21.1626C36.9465 20.5126 35.9927 19.5457 35.3763 19.1882C33.4474 18.0691 31.2298 18.1235 29.4034 19.3345C28.777 19.7499 28.041 20.5192 27.7002 21.115C27.5623 21.356 27.4345 21.5531 27.4162 21.5531C27.3978 21.5531 27.3828 20.1996 27.3828 18.5453V15.5375H32.3784H37.374L37.4956 15.7112ZM17.7948 17.7323C16.9732 18.139 16.8874 19.236 17.6355 19.7696C17.8867 19.9488 17.9213 19.9516 19.8966 19.9516C21.8008 19.9516 21.9135 19.9434 22.1184 19.7905C22.5131 19.4957 22.6563 19.2305 22.6563 18.7935C22.6563 18.291 22.4206 17.9264 21.9609 17.7176C21.6794 17.5898 21.4281 17.572 19.8828 17.5706C18.2548 17.569 18.1006 17.581 17.7948 17.7323ZM10.9855 20.8511C11.9672 21.0359 12.7705 21.639 13.2045 22.517C14.1527 24.4356 13.0516 26.6633 10.9391 27.1001C8.79969 27.5424 6.75977 25.4926 7.21711 23.3599C7.60063 21.5717 9.19055 20.5132 10.9855 20.8511ZM33.8242 21.0711C34.4912 21.3832 35.0555 21.9506 35.3727 22.6281C35.7085 23.3454 35.7654 24.3314 35.5099 25.0093C35.1604 25.9368 34.4958 26.6253 33.638 26.9486C31.677 27.6876 29.6023 26.4024 29.3077 24.2662C29.1512 23.1309 29.892 21.7469 30.9613 21.177C31.5855 20.8442 31.9149 20.7727 32.6727 20.805C33.1875 20.827 33.4146 20.8794 33.8242 21.0711Z" fill="#55BF00"/>
</svg>
