<svg width="40" height="40" viewBox="0 0 40 40" fill="none" xmlns="http://www.w3.org/2000/svg">
<g clip-path="url(#clip0_44_72)">
<path fill-rule="evenodd" clip-rule="evenodd" d="M9.95864 0.143506C9.68403 0.31124 0.238166 9.85194 0.0980874 10.1031C0.024728 10.2347 0.0026186 13.3055 0.000431103 23.6452C-0.00222515 36.5276 0.00308734 37.0344 0.144884 37.4901C0.347619 38.1415 0.611916 38.5649 1.10918 39.0353C1.58004 39.4805 1.93973 39.687 2.57051 39.8741C2.95379 39.9876 4.36559 39.9998 17.1649 39.9998C26.9233 39.9998 31.5099 39.9735 31.8968 39.9154C33.2343 39.7143 34.5311 39.2201 35.6707 38.4773C37.9852 36.9686 39.5267 34.5504 39.924 31.8049C40.0531 30.9137 39.9768 29.2937 39.7656 28.4373C39.0793 25.6546 37.2746 23.4012 34.7026 22.1155C33.655 21.5919 32.0067 21.1725 30.9938 21.1719L30.5446 21.1717V12.0771C30.5446 3.44819 30.5372 2.95874 30.4 2.51819C30.1307 1.65296 29.4245 0.811318 28.6305 0.4096C27.7887 -0.0164159 28.1768 -0.00016592 18.8311 0.00014658C10.5949 0.000380955 10.1821 0.0070997 9.95864 0.143506ZM27.6046 2.57054C27.7908 2.68624 27.9625 2.88108 28.0521 3.07835C28.1911 3.38429 28.1975 3.79374 28.1991 12.4284L28.2008 21.4586L27.7125 21.5937C27.039 21.78 25.9251 22.3186 25.1863 22.8153C24.4043 23.3411 23.1891 24.5558 22.7079 25.2928L22.3381 25.8592L13.9218 25.8595C5.66145 25.8598 5.50082 25.8626 5.2509 26.0151C4.49629 26.4751 4.49629 27.587 5.2509 28.0471C5.50051 28.1994 5.66035 28.2024 13.4157 28.2026C19.6924 28.2029 21.3255 28.2231 21.3243 28.3006C21.3235 28.3544 21.2719 28.6795 21.2098 29.0233C21.1477 29.367 21.0957 29.8504 21.0942 30.0975L21.0915 30.5467L13.2985 30.547C5.66012 30.5473 5.50043 30.5504 5.2509 30.7026C4.49629 31.1626 4.49629 32.2745 5.2509 32.7346C5.50051 32.8869 5.66043 32.8899 13.4454 32.8901L21.3854 32.8905L21.4718 33.2333C21.7982 34.5299 22.8342 36.2219 23.9652 37.3057L24.3332 37.6583L13.7336 37.6376C3.16606 37.6171 3.13348 37.6166 2.9184 37.4559C2.79973 37.3673 2.6302 37.1978 2.5416 37.0791C2.38067 36.8636 2.38051 36.851 2.36004 24.3301L2.33957 11.7967L6.61785 11.7964C10.7491 11.7962 10.9049 11.7908 11.1507 11.6409C11.2908 11.5555 11.4752 11.3711 11.5606 11.231C11.7106 10.9851 11.7159 10.8293 11.7161 6.65851L11.7164 2.34062L19.5094 2.36163L27.3024 2.38265L27.6046 2.57054ZM9.3727 6.75765V9.45296H6.71028H4.04778L6.69035 6.75765C8.14379 5.27522 9.34192 4.06233 9.35285 4.06233C9.36379 4.06233 9.3727 5.27522 9.3727 6.75765ZM14.6259 7.26507C14.2698 7.4821 14.0607 7.85796 14.0607 8.28108C14.0607 8.70421 14.2698 9.08007 14.6259 9.2971C14.873 9.4478 15.0289 9.45241 19.9196 9.45241C24.8103 9.45241 24.9661 9.4478 25.2132 9.2971C25.9679 8.83702 25.9679 7.72515 25.2132 7.26507C24.9661 7.11437 24.8103 7.10976 19.9196 7.10976C15.0289 7.10976 14.873 7.11437 14.6259 7.26507ZM14.6259 11.9526C14.2698 12.1696 14.0607 12.5455 14.0607 12.9686C14.0607 13.3917 14.2698 13.7676 14.6259 13.9846C14.873 14.1353 15.0289 14.1399 19.9196 14.1399C24.8103 14.1399 24.9661 14.1353 25.2132 13.9846C25.9679 13.5245 25.9679 12.4126 25.2132 11.9526C24.9661 11.8019 24.8103 11.7973 19.9196 11.7973C15.0289 11.7973 14.873 11.8019 14.6259 11.9526ZM5.2509 16.6401C4.89481 16.8571 4.68574 17.233 4.68574 17.6561C4.68574 18.0792 4.89481 18.4551 5.2509 18.6721C5.50137 18.8248 5.66403 18.8274 15.2321 18.8274C24.8001 18.8274 24.9628 18.8248 25.2132 18.6721C25.9679 18.212 25.9679 17.1001 25.2132 16.6401C24.9628 16.4873 24.8001 16.4848 15.2321 16.4848C5.66403 16.4848 5.50137 16.4873 5.2509 16.6401ZM5.2509 21.3276C4.49629 21.7876 4.49629 22.8995 5.2509 23.3596C5.50035 23.5117 5.65965 23.5149 13.0849 23.5151C21.6604 23.5155 21.0261 23.5633 21.3825 22.8894C21.6065 22.466 21.6065 22.2212 21.3825 21.7977C21.0261 21.1238 21.6604 21.1717 13.0849 21.172C5.65965 21.1723 5.50035 21.1755 5.2509 21.3276ZM31.3046 23.5995C33.7997 23.8777 35.8276 25.3013 36.9162 27.5389C38.228 30.2352 37.6293 33.5123 35.4433 35.6014C34.0445 36.9383 32.4268 37.5974 30.5446 37.5974C28.6624 37.5974 27.0447 36.9383 25.6458 35.6014C24.254 34.2712 23.4947 32.4883 23.4932 30.5467C23.4907 26.9985 26.1631 24.0012 29.6852 23.6021C30.5218 23.5073 30.4784 23.5074 31.3046 23.5995ZM33.6305 28.2963C33.5446 28.3451 32.5518 29.2797 31.4243 30.3733L29.3743 32.3616L28.768 31.813C28.4346 31.5114 28.0563 31.1526 27.9274 31.0159C27.6076 30.6766 27.3328 30.5466 26.9352 30.547C26.0545 30.5478 25.4701 31.5627 25.9229 32.3052C26.0826 32.5672 28.5861 34.9848 28.8519 35.1338C28.945 35.186 29.1793 35.2287 29.3727 35.2287C29.5661 35.2287 29.8008 35.186 29.8943 35.1338C30.1504 34.9909 35.002 30.2308 35.1666 29.9608C35.4792 29.4484 35.2777 28.6839 34.7445 28.3588C34.4608 28.1858 33.8826 28.1533 33.6305 28.2963Z" fill="#55BF00"/>
</g>
<defs>
<clipPath id="clip0_44_72">
<rect width="40" height="40" fill="white"/>
</clipPath>
</defs>
</svg>
