<svg width="18" height="15" viewBox="0 0 18 15" fill="none" xmlns="http://www.w3.org/2000/svg">
<path d="M14.8332 0.833496H3.1665C2.50346 0.833496 1.86758 1.09689 1.39874 1.56573C0.929896 2.03457 0.666504 2.67045 0.666504 3.3335V11.6668C0.666504 12.3299 0.929896 12.9658 1.39874 13.4346C1.86758 13.9034 2.50346 14.1668 3.1665 14.1668H14.8332C15.4962 14.1668 16.1321 13.9034 16.6009 13.4346C17.0698 12.9658 17.3332 12.3299 17.3332 11.6668V3.3335C17.3332 2.67045 17.0698 2.03457 16.6009 1.56573C16.1321 1.09689 15.4962 0.833496 14.8332 0.833496ZM3.1665 2.50016H14.8332C15.0542 2.50016 15.2661 2.58796 15.4224 2.74424C15.5787 2.90052 15.6665 3.11248 15.6665 3.3335L8.99984 7.40016L2.33317 3.3335C2.33317 3.11248 2.42097 2.90052 2.57725 2.74424C2.73353 2.58796 2.94549 2.50016 3.1665 2.50016ZM15.6665 11.6668C15.6665 11.8878 15.5787 12.0998 15.4224 12.2561C15.2661 12.4124 15.0542 12.5002 14.8332 12.5002H3.1665C2.94549 12.5002 2.73353 12.4124 2.57725 12.2561C2.42097 12.0998 2.33317 11.8878 2.33317 11.6668V5.2335L8.5665 9.04183C8.69318 9.11497 8.83689 9.15347 8.98317 9.15347C9.12945 9.15347 9.27315 9.11497 9.39984 9.04183L15.6665 5.2335V11.6668Z" fill="white"/>
</svg>
