<svg width="40" height="40" viewBox="0 0 40 40" fill="none" xmlns="http://www.w3.org/2000/svg">
<g clip-path="url(#clip0_44_76)">
<path fill-rule="evenodd" clip-rule="evenodd" d="M7.92969 1.29673C3.94688 1.70157 0.855469 3.46235 0.156953 5.72368C0.00226563 6.22454 0 6.43149 0 19.9655C0 33.4255 0.00304688 33.7089 0.154453 34.1956C0.807891 36.2965 3.57156 38.0142 7.10977 38.5183C11.3076 39.1164 15.4044 38.2445 17.7734 36.2487L18.1641 35.9196L18.7698 36.4064C20.7589 38.0052 23.9268 38.8424 27.3438 38.6725C28.9241 38.5939 29.2524 38.5939 30.3906 38.6725C34.4686 38.9541 38.1906 36.4013 39.5297 32.4044C40.3181 30.0511 40.1137 27.3926 38.983 25.2958C38.5027 24.4051 37.9744 23.7328 37.1043 22.9056L36.3281 22.1676L36.3265 19.4063C36.3248 16.7151 36.3202 16.632 36.1424 16.1285C35.7005 14.8765 34.7013 13.8774 33.0667 13.053C30.5009 11.759 26.6961 11.3467 23.3984 12.0054C22.3312 12.2185 20.8775 12.714 20.0896 13.1331C19.7298 13.3245 19.4219 13.4811 19.4052 13.4811C19.3886 13.4811 19.375 11.9407 19.375 10.058C19.375 7.93665 19.3428 6.45853 19.2903 6.17126C18.8713 3.87735 16.1306 2.01001 12.3047 1.41173C11.3561 1.26345 8.89398 1.19868 7.92969 1.29673ZM11.757 3.75587C15.2419 4.2811 17.4645 5.85587 16.8379 7.35564C16.5516 8.04087 15.2933 8.90032 13.8973 9.36407C10.8671 10.3709 6.95875 10.1835 4.33375 8.90564C3.60117 8.54907 2.85945 7.96071 2.59023 7.52282C2.33164 7.10204 2.30727 6.75892 2.50359 6.30259C2.98602 5.1811 5.02156 4.14212 7.48984 3.75759C8.43203 3.61071 10.7877 3.60985 11.757 3.75587ZM3.07156 10.9455C4.84125 11.8869 7.12289 12.3881 9.63289 12.3867C12.1952 12.3853 14.2355 11.9548 16.1133 11.0193L16.9531 10.6009V11.4695C16.9531 12.1906 16.9255 12.3952 16.7899 12.6751C16.3054 13.676 14.4506 14.6378 12.1894 15.0608C11.1084 15.263 8.57812 15.3035 7.53906 15.1352C5.5743 14.817 3.87648 14.126 3.02398 13.2974C2.46578 12.7549 2.39305 12.5597 2.35797 11.5084C2.34109 11.0035 2.34461 10.5905 2.36578 10.5905C2.38695 10.5905 2.70453 10.7502 3.07156 10.9455ZM29.1416 14.2885C32.2487 14.8697 34.2653 16.2881 33.9022 17.6369C33.7724 18.1186 32.9489 18.9065 32.1484 19.3148C31.1923 19.8024 30.0482 20.1524 28.7109 20.3662C27.764 20.5177 25.4485 20.4964 24.4208 20.3269C21.582 19.8585 19.5144 18.6544 19.3938 17.3992C19.3452 16.894 19.5499 16.5093 20.1623 15.9552C21.0991 15.1074 22.7895 14.4689 24.8438 14.187C25.6304 14.079 28.3672 14.1437 29.1416 14.2885ZM4.49219 16.8395C6.06297 17.3896 7.61594 17.6267 9.64844 17.6269C12.3894 17.627 14.6652 17.1245 16.4258 16.1306L16.9531 15.8327V16.7304C16.9531 17.7954 16.8731 18.005 16.2386 18.6026C15.2816 19.5038 13.4676 20.1906 11.3827 20.4407C10.1715 20.5861 7.90563 20.493 6.79016 20.2519C4.63992 19.7873 2.9818 18.8714 2.52859 17.8981C2.37227 17.5626 2.34516 17.3809 2.34453 16.6657L2.34375 15.8269L3.06641 16.21C3.46383 16.4207 4.10547 16.704 4.49219 16.8395ZM4.01461 21.9163C5.7643 22.6081 7.32844 22.882 9.57031 22.8893C11.4323 22.8953 12.2178 22.8071 13.7109 22.4244C14.797 22.146 15.6002 21.841 16.3894 21.4072C16.6595 21.2588 16.8967 21.1374 16.9167 21.1374C16.9367 21.1374 16.9531 21.5306 16.9531 22.0111C16.9531 22.7377 16.9256 22.9417 16.7898 23.2221C16.2816 24.272 14.0932 25.3138 11.6351 25.6763C10.5829 25.8314 8.33227 25.7939 7.26406 25.6034C5.34875 25.262 3.90039 24.6427 3.03953 23.7971C2.4175 23.1861 2.34477 22.9839 2.34422 21.864L2.34375 21.0671L2.87109 21.3699C3.16109 21.5363 3.6757 21.7822 4.01461 21.9163ZM21.7544 22.1469C22.4626 22.3728 23.619 22.6385 24.3192 22.7362L24.6932 22.7884L24.1411 23.3796C23.6782 23.8752 22.877 24.9675 22.7943 25.2155C22.7397 25.3792 21.0673 24.6231 20.4234 24.1435C19.5461 23.4901 19.375 23.1358 19.375 21.9727V21.0831L20.2114 21.5023C20.6714 21.7329 21.3657 22.023 21.7544 22.1469ZM32.8055 23.0854C34.6396 23.6202 36.0688 24.8152 36.8759 26.4889C37.9775 28.7738 37.853 31.2082 36.5307 33.2409C35.5714 34.7155 34.0974 35.7452 32.3763 36.1429C31.7412 36.2896 31.4901 36.3078 30.6034 36.2709C29.4 36.2208 28.9022 36.1013 27.9164 35.626C26.542 34.9634 25.489 33.9107 24.8032 32.5141C24.0673 31.0154 23.9285 29.4749 24.3733 27.7431C24.9904 25.3401 26.8896 23.5288 29.375 22.973C30.1419 22.8014 32.0455 22.8638 32.8055 23.0854ZM29.882 25.0802C27.8263 25.5278 26.2981 27.4124 26.3008 29.4967C26.3026 30.9235 26.8791 32.1967 27.9212 33.0755C29.3605 34.2892 31.6139 34.4419 33.3297 33.4419C34.2976 32.8778 35.1139 31.6524 35.3591 30.3952C35.9812 27.2068 33.0735 24.3852 29.882 25.0802ZM3.16406 26.7736C6.88242 28.6842 12.8043 28.6413 16.3867 26.6781L16.9531 26.3677V27.2435C16.9531 27.972 16.9257 28.176 16.7899 28.4563C16.2968 29.475 14.3638 30.4623 12.0703 30.8668C10.9377 31.0666 9.12008 31.1025 7.91773 30.9489C5.33148 30.6185 3.25328 29.6883 2.59336 28.5659C2.40289 28.2418 2.38016 28.1194 2.35477 27.2803C2.33938 26.7703 2.35695 26.3663 2.39383 26.3827C2.43078 26.399 2.77734 26.5749 3.16406 26.7736ZM20.3055 26.8233C20.7527 27.0475 21.3068 27.2902 21.5366 27.3627C21.8478 27.4608 21.9448 27.5256 21.9165 27.6167C21.824 27.9141 21.7217 28.8869 21.7203 29.4827L21.7188 30.1327L21.1645 29.8342C20.4973 29.475 19.7377 28.8077 19.528 28.3966C19.4032 28.152 19.375 27.9363 19.375 27.2277C19.375 26.7498 19.4014 26.3715 19.4336 26.3872C19.4658 26.4028 19.8581 26.5991 20.3055 26.8233ZM31.6506 27.5067C32.1329 27.671 32.5441 28.0311 32.7945 28.5085C32.9757 28.8538 33.0056 29.0049 33.0058 29.5749C33.0059 30.371 32.8572 30.7128 32.2952 31.2075C31.6206 31.8013 30.682 31.9137 29.8632 31.4988C28.2896 30.7014 28.2876 28.4117 29.8598 27.626C30.4136 27.3493 31.0619 27.3061 31.6506 27.5067ZM4.5775 32.648C7.47367 33.6485 11.1578 33.7132 14.2474 32.8179C14.9738 32.6074 15.9911 32.1774 16.5691 31.8366L16.9531 31.6102V32.5097C16.9531 33.2554 16.9264 33.4617 16.7966 33.7159C16.207 34.8717 14.0196 35.8955 11.4484 36.2191C10.3634 36.3556 7.92344 36.2731 6.91852 36.066C4.71336 35.6113 2.99273 34.6762 2.52906 33.6805C2.37227 33.3437 2.34516 33.1627 2.34453 32.447L2.34375 31.6081L3.06641 31.9919C3.46383 32.203 4.14383 32.4982 4.5775 32.648ZM20.3638 32.0875C20.843 32.3308 21.4798 32.6086 21.7787 32.7049L22.3221 32.8799L22.601 33.4735C22.9397 34.1943 23.4705 34.9945 24.0442 35.6491C24.5464 36.222 24.5405 36.2245 23.37 35.941C21.4684 35.4802 19.9951 34.6217 19.5232 33.6991C19.4028 33.4635 19.375 33.2389 19.375 32.5012C19.375 32.0017 19.4014 31.6048 19.4336 31.6192C19.4658 31.6334 19.8844 31.8442 20.3638 32.0875Z" fill="#55BF00"/>
</g>
<defs>
<clipPath id="clip0_44_76">
<rect width="40" height="40" fill="white"/>
</clipPath>
</defs>
</svg>
