<svg width="16" height="17" viewBox="0 0 16 17" fill="none" xmlns="http://www.w3.org/2000/svg">
<path d="M6.23312 10.2667L6.10812 10.1667L5.95812 10.0833L5.80812 10.0417C5.67424 10.0149 5.53582 10.0214 5.40504 10.0606C5.27426 10.0998 5.15513 10.1706 5.05812 10.2667C4.97568 10.3422 4.91277 10.4365 4.87478 10.5417C4.83069 10.6414 4.80792 10.7493 4.80792 10.8583C4.80792 10.9674 4.83069 11.0753 4.87478 11.175C4.96432 11.3752 5.12454 11.5355 5.32478 11.625C5.42497 11.6677 5.53255 11.6904 5.64145 11.6917C5.75296 11.6896 5.86313 11.667 5.96645 11.625C6.06802 11.5848 6.15917 11.5221 6.23312 11.4417C6.31106 11.3656 6.37335 11.275 6.41645 11.175C6.4563 11.0742 6.47611 10.9667 6.47478 10.8583C6.4776 10.749 6.45477 10.6406 6.40812 10.5417C6.36994 10.4386 6.31028 10.3449 6.23312 10.2667ZM0.924782 5.8C1.03504 5.79955 1.14411 5.77721 1.24567 5.7343C1.34723 5.69139 1.43927 5.62874 1.51645 5.55L5.04978 2.01667C5.20499 1.86053 5.29211 1.64932 5.29211 1.42917C5.29211 1.20902 5.20499 0.997805 5.04978 0.84167C4.89365 0.68646 4.68244 0.599342 4.46228 0.599342C4.24213 0.599342 4.03092 0.68646 3.87478 0.84167L0.341448 4.375C0.186239 4.53114 0.0991211 4.74235 0.0991211 4.9625C0.0991211 5.18266 0.186239 5.39387 0.341448 5.55C0.495307 5.70702 0.704974 5.79687 0.924782 5.8ZM15.6581 11.45C15.502 11.2948 15.2908 11.2077 15.0706 11.2077C14.8505 11.2077 14.6393 11.2948 14.4831 11.45L10.9498 14.9833C10.8328 15.0994 10.7528 15.2475 10.72 15.4091C10.6871 15.5706 10.703 15.7382 10.7654 15.8907C10.8278 16.0432 10.9341 16.1738 11.0707 16.266C11.2074 16.3581 11.3683 16.4076 11.5331 16.4083C11.6434 16.4079 11.7524 16.3855 11.854 16.3426C11.9556 16.2997 12.0476 16.2371 12.1248 16.1583L15.6581 12.6667C15.7414 12.5887 15.8077 12.4945 15.8531 12.3899C15.8985 12.2852 15.9219 12.1724 15.9219 12.0583C15.9219 11.9443 15.8985 11.8314 15.8531 11.7268C15.8077 11.6222 15.7414 11.528 15.6581 11.45ZM15.7998 6.73334C15.8014 6.07171 15.5407 5.43642 15.0748 4.96667L11.5331 1.425C11.0562 0.972496 10.4239 0.720235 9.76645 0.720235C9.10903 0.720235 8.47668 0.972496 7.99978 1.425L0.924782 8.5C0.456614 8.96875 0.193648 9.60417 0.193648 10.2667C0.193648 10.9292 0.456614 11.5646 0.924782 12.0333L4.46645 15.575C4.9352 16.0432 5.57061 16.3061 6.23312 16.3061C6.89562 16.3061 7.53103 16.0432 7.99978 15.575L15.0748 8.5C15.5407 8.03025 15.8014 7.39496 15.7998 6.73334ZM13.8914 7.325L6.82478 14.3917C6.74731 14.4698 6.65515 14.5318 6.5536 14.5741C6.45205 14.6164 6.34313 14.6382 6.23312 14.6382C6.12311 14.6382 6.01418 14.6164 5.91263 14.5741C5.81109 14.5318 5.71892 14.4698 5.64145 14.3917L2.10811 10.8583C2.03001 10.7809 1.96801 10.6887 1.92571 10.5872C1.8834 10.4856 1.86162 10.3767 1.86162 10.2667C1.86162 10.1567 1.8834 10.0477 1.92571 9.94619C1.96801 9.84464 2.03001 9.75247 2.10811 9.675L9.17478 2.60834C9.25225 2.53023 9.34442 2.46823 9.44597 2.42593C9.54752 2.38362 9.65644 2.36184 9.76645 2.36184C9.87646 2.36184 9.98538 2.38362 10.0869 2.42593C10.1885 2.46823 10.2806 2.53023 10.3581 2.60834L13.8914 6.14167C13.9696 6.21914 14.0316 6.31131 14.0739 6.41286C14.1162 6.51441 14.1379 6.62333 14.1379 6.73334C14.1379 6.84335 14.1162 6.95227 14.0739 7.05382C14.0316 7.15537 13.9696 7.24753 13.8914 7.325Z" fill="#55BF00"/>
</svg>
