<?xml version="1.0" encoding="utf-8"?>
<!-- Generator: Adobe Illustrator 23.0.1, SVG Export Plug-In . SVG Version: 6.00 Build 0)  -->
<svg version="1.1" xmlns="http://www.w3.org/2000/svg" xmlns:xlink="http://www.w3.org/1999/xlink" x="0px" y="0px"
	 viewBox="0 0 22 22" style="enable-background:new 0 0 22 22;" xml:space="preserve">
<g id="Слой_1">
</g>
<g id="Editable-line">
	<path d="M9.2,18.3C4.1,18.3,0,14.2,0,9.2C0,4.1,4.1,0,9.2,0c5.1,0,9.2,4.1,9.2,9.2C18.3,14.2,14.2,18.3,9.2,18.3z M9.2,1.8
		c-4,0-7.3,3.3-7.3,7.3s3.3,7.3,7.3,7.3s7.3-3.3,7.3-7.3S13.2,1.8,9.2,1.8z"/>
	<path d="M21.1,22c-0.2,0-0.5-0.1-0.6-0.3l-6.1-6.1c-0.4-0.4-0.4-0.9,0-1.3s0.9-0.4,1.3,0l6.1,6.1c0.4,0.4,0.4,0.9,0,1.3
		C21.6,21.9,21.3,22,21.1,22z"/>
</g>
</svg>
