<svg width="40" height="40" viewBox="0 0 40 40" fill="none" xmlns="http://www.w3.org/2000/svg">
<g clip-path="url(#clip0_44_80)">
<path fill-rule="evenodd" clip-rule="evenodd" d="M0.561937 0.155312C0.421859 0.240703 0.23725 0.425078 0.151703 0.565156C-0.00235965 0.817266 -0.00368778 0.95914 0.0156872 14.9995C0.0351404 29.0401 0.0368591 29.1812 0.191547 29.3928C0.277484 29.5104 0.490765 29.6773 0.665453 29.7639C0.980297 29.9199 1.10623 29.9213 15.1258 29.9213H29.2685L29.6046 29.7436C29.8028 29.6387 30.0001 29.455 30.0857 29.2956C30.2253 29.0352 30.2306 28.5099 30.2303 14.9226C30.2301 0.987968 30.2282 0.816719 30.0748 0.565156C29.9894 0.425078 29.805 0.240703 29.6649 0.155312C29.4133 0.001875 29.2419 0 15.1134 0C0.984906 0 0.813578 0.001875 0.561937 0.155312ZM36.129 0.146953C36.0001 0.227734 35.344 0.851641 34.6708 1.53336C33.6658 2.55125 33.4374 2.82422 33.3937 3.05977C33.3173 3.47148 33.4108 3.79211 33.6951 4.09352C34.1076 4.53101 34.7563 4.60086 35.2715 4.26328L35.465 4.13648V16.2478V28.3591L35.1732 28.2027C34.5404 27.8636 33.7823 28.0908 33.5044 28.703C33.1912 29.3924 33.3368 29.6904 34.6276 31.001C35.9576 32.3513 36.1577 32.4995 36.6525 32.4995C36.863 32.4995 37.1301 32.4491 37.2462 32.3876C37.4986 32.2537 39.786 29.9556 39.9098 29.7116C40.0471 29.4407 40.0126 28.8945 39.8404 28.612C39.4917 28.0402 38.719 27.8676 38.1712 28.2393L37.8869 28.4323V16.2335V4.03469L38.0746 4.21109C38.1779 4.30812 38.3888 4.41602 38.5433 4.45086C39.4884 4.66398 40.2611 3.7532 39.9127 2.8368C39.8045 2.55219 37.5455 0.275 37.2165 0.118906C36.8755 -0.0428906 36.413 -0.0310156 36.129 0.146953ZM10.5433 6.34711C10.5433 10.8103 10.5312 10.7042 11.082 11.0721C11.5984 11.4171 11.8694 11.3474 13.595 10.4265L15.1369 9.60344L16.6486 10.4041C18.0733 11.1586 18.1873 11.2048 18.629 11.2075C19.1879 11.2109 19.4463 11.057 19.6826 10.5802C19.8341 10.2745 19.84 10.1149 19.84 6.30289V2.3432H23.8634H27.8869V14.9213V27.4995H15.1134H2.33998V14.9213V2.3432H6.44155H10.5431L10.5433 6.34711ZM17.4181 5.19476C17.4181 6.76312 17.4023 8.04633 17.383 8.04633C17.3637 8.04633 16.8847 7.81781 16.3184 7.53851C15.7522 7.25922 15.2046 7.0307 15.1016 7.0307C14.9986 7.0307 14.4753 7.25922 13.9387 7.53851C13.402 7.81781 12.9458 8.04633 12.9249 8.04633C12.904 8.04633 12.8869 6.76312 12.8869 5.19476V2.3432H15.1525H17.4181V5.19476ZM19.2941 18.3022C18.4551 18.7459 18.4551 19.9249 19.2941 20.3686C19.623 20.5425 19.6828 20.5463 22.0623 20.5463C24.4308 20.5463 24.5033 20.5417 24.8372 20.3705C25.6794 19.9387 25.6805 18.7472 24.839 18.3022C24.5101 18.1283 24.4505 18.1245 22.0665 18.1245C19.6826 18.1245 19.623 18.1283 19.2941 18.3022ZM19.2941 22.9897C18.4551 23.4334 18.4551 24.6124 19.2941 25.0561C19.623 25.23 19.6828 25.2338 22.0623 25.2338C24.4308 25.2338 24.5033 25.2292 24.8372 25.058C25.6794 24.6262 25.6805 23.4347 24.839 22.9897C24.5101 22.8158 24.4505 22.812 22.0665 22.812C19.6826 22.812 19.623 22.8158 19.2941 22.9897ZM2.88686 33.441C2.646 33.5405 0.262484 35.8959 0.108109 36.187C-0.0243909 36.4369 -0.0365784 36.8561 0.0797497 37.1621C0.187953 37.4467 2.44694 39.7239 2.776 39.88C3.6817 40.3098 4.66788 39.5231 4.44764 38.5466C4.4128 38.392 4.30491 38.1811 4.20788 38.0778L4.03147 37.8901H16.2303H28.429L28.2361 38.1744C27.8644 38.7222 28.0369 39.4949 28.6088 39.8436C28.8913 40.0159 29.4375 40.0503 29.7084 39.913C29.9524 39.7892 32.2505 37.5018 32.3844 37.2495C32.4459 37.1334 32.4962 36.8662 32.4962 36.6557C32.4962 36.1609 32.3481 35.9608 30.9978 34.6309C29.6872 33.34 29.3892 33.1945 28.6998 33.5076C28.0876 33.7855 27.8604 34.5436 28.1995 35.1764L28.3559 35.4682H16.249H4.14209L4.3028 35.1959C4.61819 34.6613 4.47139 33.9427 3.97467 33.589C3.69881 33.3925 3.17631 33.3215 2.88686 33.441Z" fill="#55BF00"/>
</g>
<defs>
<clipPath id="clip0_44_80">
<rect width="40" height="40" fill="white"/>
</clipPath>
</defs>
</svg>
