<svg width="10" height="6" viewBox="0 0 10 6" fill="none" xmlns="http://www.w3.org/2000/svg">
<path d="M8.91815 0.205752C8.86391 0.151077 8.79938 0.10768 8.72828 0.0780654C8.65718 0.0484503 8.58092 0.0332031 8.5039 0.0332031C8.42688 0.0332031 8.35062 0.0484503 8.27952 0.0780654C8.20842 0.10768 8.14389 0.151077 8.08965 0.205752L3.74294 4.55742L1.91674 2.72575C1.86043 2.67136 1.79395 2.6286 1.7211 2.59989C1.64825 2.57119 1.57046 2.55712 1.49218 2.55847C1.41389 2.55982 1.33664 2.57658 1.26482 2.60779C1.19301 2.63899 1.12806 2.68403 1.07365 2.74034C1.01925 2.79664 0.97648 2.86311 0.947772 2.93594C0.919064 3.00877 0.904985 3.08654 0.906339 3.16481C0.907694 3.24309 0.924455 3.32032 0.955666 3.39212C0.986877 3.46392 1.03193 3.52886 1.08824 3.58325L3.32869 5.82325C3.38293 5.87793 3.44746 5.92132 3.51856 5.95094C3.58966 5.98055 3.66592 5.9958 3.74294 5.9958C3.81996 5.9958 3.89622 5.98055 3.96732 5.95094C4.03842 5.92132 4.10295 5.87793 4.15719 5.82325L8.91815 1.06325C8.97737 1.00863 9.02464 0.942331 9.05696 0.868539C9.08929 0.794748 9.10598 0.715062 9.10598 0.634502C9.10598 0.553943 9.08929 0.474256 9.05696 0.400465C9.02464 0.326674 8.97737 0.260377 8.91815 0.205752Z" fill="white"/>
</svg>
