<svg width="40" height="32" viewBox="0 0 40 32" fill="none" xmlns="http://www.w3.org/2000/svg">
<path fill-rule="evenodd" clip-rule="evenodd" d="M26.0782 0.89228C25.8332 0.973373 25.4811 1.12853 25.2959 1.23712C24.7919 1.53244 24.1644 2.24119 23.8926 2.82205C23.5146 3.62986 23.5016 4.80751 23.8611 5.67283C23.9017 5.77033 23.7409 5.85103 23.0513 6.07923C19.1783 7.36111 16.1147 10.4424 14.8452 14.3328C14.3654 15.8029 14.2574 16.5563 14.2621 18.4027C14.2656 19.7596 14.2931 20.1296 14.4423 20.8246C15.5626 26.0416 19.3926 29.8716 24.6096 30.9919C25.7289 31.2322 28.2251 31.2522 29.4143 31.0304C34.0159 30.172 37.8723 26.8322 39.3368 22.437C39.8512 20.8935 39.9555 20.2001 39.9555 18.3246C39.9555 16.449 39.8512 15.7556 39.3368 14.2121C38.04 10.3205 34.7811 7.14939 30.8743 5.97767C30.4073 5.83767 30.3131 5.78306 30.3579 5.67877C30.7761 4.70689 30.6846 3.38689 30.134 2.44736C29.838 1.94228 29.1302 1.31665 28.5449 1.04275C28.1002 0.834623 27.9178 0.795795 27.2746 0.77228C26.6923 0.75103 26.4237 0.777983 26.0782 0.89228ZM27.4167 3.16673C27.7785 3.27048 28.1109 3.60619 28.2076 3.96533C28.4999 5.05048 27.2062 5.84736 26.3594 5.10384C25.6032 4.43994 26.0485 3.18423 27.0711 3.09689C27.1143 3.09322 27.2699 3.12462 27.4167 3.16673ZM7.59721 5.58978C6.8426 6.04986 6.8426 7.16174 7.59721 7.62181C7.8294 7.76345 7.99276 7.77713 9.45338 7.77713C10.914 7.77713 11.0774 7.76345 11.3096 7.62181C12.0642 7.16174 12.0642 6.04986 11.3096 5.58978C11.0774 5.44814 10.914 5.43447 9.45338 5.43447C7.99276 5.43447 7.8294 5.44814 7.59721 5.58978ZM25.9381 8.57845C25.9384 9.39877 26.0589 9.69455 26.5035 9.96556C27.0366 10.2906 27.7943 10.0992 28.1257 9.55572C28.251 9.35025 28.281 9.16166 28.2812 8.57845C28.2814 8.18095 28.3024 7.8558 28.3278 7.8558C28.3533 7.8558 28.7203 7.92634 29.1433 8.01252C33.3689 8.87361 36.5606 12.0653 37.4217 16.2909C37.5078 16.7139 37.5784 17.0809 37.5784 17.1063C37.5784 17.1318 37.2532 17.1528 36.8557 17.153C36.2725 17.1532 36.0839 17.1832 35.8785 17.3085C35.1239 17.7686 35.1239 18.8805 35.8785 19.3406C36.0839 19.4659 36.2725 19.4959 36.8557 19.4961C37.2532 19.4963 37.5784 19.5173 37.5784 19.5428C37.5784 19.7828 37.2139 21.2719 37.0221 21.8158C35.9693 24.8 33.5851 27.1842 30.6009 28.237C30.057 28.4289 28.5679 28.7933 28.3278 28.7933C28.3024 28.7933 28.2814 28.4681 28.2812 28.0706C28.281 27.4874 28.251 27.2988 28.1257 27.0934C27.6656 26.3388 26.5537 26.3388 26.0936 27.0934C25.9683 27.2988 25.9383 27.4874 25.9381 28.0706C25.9379 28.4681 25.9169 28.7933 25.8914 28.7933C25.6514 28.7933 24.1623 28.4289 23.6184 28.237C20.6342 27.1842 18.25 24.8 17.1972 21.8158C17.0053 21.2719 16.6409 19.7828 16.6409 19.5428C16.6409 19.5173 16.966 19.4963 17.3635 19.4961C17.9467 19.4959 18.1353 19.4659 18.3408 19.3406C19.0954 18.8805 19.0954 17.7686 18.3408 17.3085C18.1353 17.1832 17.9467 17.1532 17.3635 17.153C16.966 17.1528 16.6409 17.1318 16.6409 17.1063C16.6409 17.0809 16.7114 16.7139 16.7976 16.2909C17.6574 12.0718 20.8165 8.90525 25.0577 8.01111C25.4343 7.93174 25.7864 7.86431 25.8401 7.86127C25.9116 7.85728 25.9378 8.04963 25.9381 8.57845ZM5.25346 12.621C4.89737 12.8381 4.6883 13.2139 4.6883 13.637C4.6883 14.0602 4.89737 14.436 5.25346 14.6531C5.49486 14.8003 5.65158 14.8084 8.28151 14.8084C10.9114 14.8084 11.0681 14.8003 11.3096 14.6531C12.0642 14.193 12.0642 13.0811 11.3096 12.621C11.0681 12.4738 10.9114 12.4657 8.28151 12.4657C5.65158 12.4657 5.49486 12.4738 5.25346 12.621ZM26.5035 12.621C26.3634 12.7064 26.179 12.8908 26.0936 13.0309C25.9466 13.272 25.9383 13.4288 25.9383 15.9808C25.9383 18.5328 25.9466 18.6896 26.0936 18.9307C26.179 19.0708 26.3634 19.2552 26.5035 19.3406C26.7446 19.4876 26.9014 19.4959 29.4534 19.4959C32.0053 19.4959 32.1622 19.4876 32.4033 19.3406C33.1579 18.8805 33.1579 17.7686 32.4033 17.3085C32.1674 17.1646 32.0067 17.1532 30.2151 17.153L28.2815 17.1527L28.2812 15.2191C28.281 13.4274 28.2696 13.2668 28.1257 13.0309C27.7943 12.4874 27.0366 12.296 26.5035 12.621ZM2.90971 19.6523C2.1551 20.1124 2.1551 21.2242 2.90971 21.6843C3.15486 21.8338 3.31033 21.8396 7.10963 21.8396C10.9089 21.8396 11.0644 21.8338 11.3096 21.6843C12.0642 21.2242 12.0642 20.1124 11.3096 19.6523C11.0644 19.5028 10.9089 19.497 7.10963 19.497C3.31033 19.497 3.15486 19.5028 2.90971 19.6523ZM0.565957 26.6835C-0.188652 27.1436 -0.188652 28.2555 0.565957 28.7156C0.813145 28.8664 0.969161 28.8709 5.93776 28.8709C10.9064 28.8709 11.0624 28.8664 11.3096 28.7156C12.0642 28.2555 12.0642 27.1436 11.3096 26.6835C11.0624 26.5328 10.9064 26.5282 5.93776 26.5282C0.969161 26.5282 0.813145 26.5328 0.565957 26.6835Z" fill="#55BF00"/>
</svg>
