<svg width="30" height="36" viewBox="0 0 30 36" fill="none" xmlns="http://www.w3.org/2000/svg">
<path fill-rule="evenodd" clip-rule="evenodd" d="M2.69531 9.73828V19.4766H1.39453H0.09375V24.6277V29.7787L1.39453 31.0781L2.69531 32.3775V34.1888V36H16.3008H29.9062V21.7439V7.48779L26.1619 3.74386L22.4175 0H12.5564H2.69531V9.73828ZM25.0547 4.88672L27.128 6.96094H25.0367H22.9453V4.88672C22.9453 3.7459 22.9534 2.8125 22.9633 2.8125C22.9732 2.8125 23.9144 3.7459 25.0547 4.88672ZM26.0391 24.6094V28.6172H13.6289H1.21875V24.6094V20.6016H13.6289H26.0391V24.6094ZM14.5823 21.8064C14.0974 21.8869 13.8128 22.0531 13.6314 22.3618C13.5109 22.567 13.4883 22.7277 13.4883 23.3789C13.4883 24.689 13.6426 24.807 15.5942 24.9896C16.7887 25.1013 16.8552 25.1447 16.8143 25.7877C16.7759 26.3907 16.698 26.4548 15.956 26.4937C15.2471 26.5309 14.7602 26.4689 14.6141 26.3228C14.5513 26.26 14.5078 26.0892 14.5078 25.9052V25.5938H13.9447H13.3816L13.4242 25.998C13.4841 26.5653 13.71 27.006 14.0182 27.1568C14.5665 27.4251 16.1538 27.4837 17.0235 27.2679C17.6584 27.1103 17.8962 26.6579 17.8933 25.6136C17.8901 24.4592 17.6132 24.2426 15.9361 24.0819C15.3565 24.0263 14.8308 23.9612 14.768 23.9371C14.6292 23.8838 14.5705 23.7153 14.5656 23.3556C14.5596 22.9217 14.6305 22.7923 14.9217 22.705C15.2444 22.6084 16.4391 22.6451 16.549 22.7552C16.5926 22.7988 16.6458 22.9649 16.6672 23.1243L16.706 23.4141H17.2643H17.8226L17.7733 23.0098C17.7117 22.5041 17.5177 22.1111 17.2655 21.9807C16.8089 21.7445 15.4771 21.6581 14.5823 21.8064ZM3.89062 21.838C3.89062 21.8606 4.25688 22.461 4.70456 23.172C5.21025 23.9752 5.4986 24.4988 5.46591 24.5547C5.43701 24.6041 5.03911 25.2338 4.58166 25.9539C4.12427 26.674 3.75 27.2831 3.75 27.3074C3.75 27.3317 4.03413 27.3516 4.38134 27.3516H5.01267L5.64422 26.2793C5.99149 25.6896 6.3048 25.1596 6.34045 25.1016C6.39277 25.0163 6.43045 25.0413 6.53663 25.2317C6.60884 25.3613 6.91638 25.8913 7.22006 26.4094L7.77216 27.3516H8.40195C8.88527 27.3516 9.0202 27.3311 8.9823 27.2637C8.95509 27.2154 8.55706 26.5684 8.09777 25.8261L7.26267 24.4766L8.07274 23.1749C8.51831 22.4589 8.88281 21.856 8.88281 21.835C8.88281 21.814 8.60072 21.7969 8.25584 21.7969H7.62893L7.00083 22.8852C6.38369 23.9544 6.37118 23.9701 6.28547 23.7817C6.23752 23.6761 5.9607 23.1864 5.67037 22.6934L5.14247 21.7969H4.51655C4.1723 21.7969 3.89062 21.8154 3.89062 21.838ZM9.44531 24.5742V27.3516H11.3086H13.1719V26.8594V26.3672H11.8711H10.5703V24.082V21.7969H10.0078H9.44531V24.5742ZM18.2801 21.8848C18.3099 21.9331 18.6896 22.5365 19.1239 23.2256L19.9135 24.4786L19.3459 25.3702C19.0338 25.8605 18.6258 26.499 18.4393 26.7891L18.1001 27.3164L18.7376 27.3367C19.2505 27.3531 19.3907 27.3356 19.4551 27.2474C19.4992 27.187 19.8186 26.6501 20.165 26.0541L20.7949 24.9705L21.0855 25.5106C21.2453 25.8077 21.5495 26.3355 21.7614 26.6836L22.1467 27.3164L22.7926 27.3367L23.4385 27.3568L22.9703 26.5984C22.7129 26.1811 22.3155 25.5428 22.0872 25.1798C21.8589 24.8167 21.6873 24.48 21.7059 24.4315C21.7245 24.383 22.0686 23.8099 22.4704 23.158C22.8723 22.506 23.2245 21.9331 23.2531 21.8848C23.2932 21.8171 23.1589 21.7969 22.6693 21.7969H22.0334L21.4171 22.8492C21.0781 23.428 20.7821 23.9026 20.7594 23.9039C20.7365 23.9052 20.6791 23.8192 20.6316 23.7129C20.5842 23.6066 20.3181 23.1326 20.0403 22.6597L19.5352 21.7999L18.8806 21.7984C18.3747 21.7972 18.2384 21.8168 18.2801 21.8848Z" fill="white"/>
</svg>
