<?xml version="1.0" encoding="utf-8"?>
<!-- Generator: Adobe Illustrator 23.0.1, SVG Export Plug-In . SVG Version: 6.00 Build 0)  -->
<svg version="1.1" id="Слой_1" xmlns="http://www.w3.org/2000/svg" xmlns:xlink="http://www.w3.org/1999/xlink" x="0px" y="0px"
	 viewBox="0 0 30 30" style="enable-background:new 0 0 30 30;" xml:space="preserve">
<style type="text/css">
	.st0{fill:#F27B1D;}
</style>
<path class="st0" d="M30,15L30,15c0,8.3-6.8,15-15,15C6.7,30,0,23.2,0,15C0,6.7,6.7,0,15,0h0c0.4,0,0.7,0,1.1,0
	c0.6,0,1.2,0.1,1.7,0.2c0.9,0.2,1.9,0.4,2.8,0.8c3.8,1.5,6.8,4.5,8.3,8.3c0.4,0.9,0.6,1.8,0.8,2.8l0,0c0.1,0.6,0.2,1.2,0.2,1.8
	C30,14.3,30,14.7,30,15z"/>
<g>
	<path style="fill:#FFFFFF;" d="M14.9,14.4c-2.4,0-4.3-1.9-4.3-4.3c0-2.4,1.9-4.3,4.3-4.3s4.3,1.9,4.3,4.3l0,0C19.3,12.4,17.3,14.4,14.9,14.4z
		 M14.9,7.8c-1.2,0-2.2,1-2.2,2.2s1,2.2,2.2,2.2s2.2-1,2.2-2.2v0C17.2,8.8,16.2,7.8,14.9,7.8z"/>
	<path style="fill:#FFFFFF;" d="M20.8,15.5c-0.3-0.6-1.1-0.8-1.7-0.4c0,0,0,0,0,0c-1.3,0.8-2.7,1.2-4.2,1.3c-1.5,0-2.9-0.5-4.2-1.3
		c-0.6-0.3-1.3,0-1.6,0.6c-0.3,0.6-0.1,1.2,0.4,1.6c0.7,0.4,1.4,0.7,2.2,1c0.3,0.1,0.7,0.3,1,0.4l0.4,0.2l-2.9,3.5
		c-0.4,0.5-0.4,1.2,0,1.6c0.4,0.5,1.2,0.5,1.6,0.1c0.1,0,0.1-0.1,0.1-0.1l2.9-3.5l2.9,3.5c0.4,0.5,1.1,0.6,1.6,0.2
		c0.5-0.4,0.6-1.2,0.1-1.7l-2.9-3.6l0.1-0.1c0.3-0.1,0.6-0.2,0.9-0.3c0.9-0.3,1.8-0.7,2.7-1.2c0.3-0.2,0.5-0.4,0.5-0.7
		C21.1,16.1,21,15.7,20.8,15.5z"/>
</g>
</svg>
