<?xml version="1.0" encoding="utf-8"?>
<!-- Generator: Adobe Illustrator 23.0.1, SVG Export Plug-In . SVG Version: 6.00 Build 0)  -->
<svg version="1.1" xmlns="http://www.w3.org/2000/svg" xmlns:xlink="http://www.w3.org/1999/xlink" x="0px" y="0px"
	 viewBox="0 0 30 30" style="enable-background:new 0 0 30 30;" xml:space="preserve">
<style type="text/css">
	.st0{fill:#4C75A3;}
</style>
<g id="Слой_1">
</g>
<g id="Layer_1">
	<path class="st0" d="M15,0C6.7,0,0,6.7,0,15s6.7,15,15,15s15-6.7,15-15S23.3,0,15,0z M23.1,20.7c-0.6,0.4-3.2,0.5-3.9,0.1
		c-0.3-0.3-0.7-0.6-1-0.9c-0.2-0.2-0.4-0.3-0.6-0.5c-0.1-0.2-0.2-0.4-0.4-0.6c-0.3-0.3-0.7-0.6-1-0.2c-0.5,0.6,0.1,1.7-0.6,2.1
		c-0.2,0.1-0.4,0.2-0.7,0.2l-0.6,0c-0.3,0-0.9,0-1.3-0.1c-0.4-0.1-0.8-0.3-1.2-0.5c-0.8-0.3-1.5-0.8-2-1.4c-1.5-1.7-3.5-4.1-4.3-6.3
		c-0.2-0.4-0.6-1.3-0.2-1.7C5.9,10.5,8.6,10.3,9,11c0.2,0.3,0.3,0.6,0.4,0.9c0.2,0.4,0.2,0.7,0.5,1c0.2,0.3,0.4,0.6,0.5,0.9
		c0.2,0.3,0.4,0.7,0.6,1c0.1,0.2,0.5,0.6,0.8,0.7c0.6,0.1,0.6-1.4,0.5-1.8c0-0.3-0.1-0.7,0-1.1c0-0.3,0-0.7-0.1-1
		c-0.3-0.4-0.9-0.1-1-0.6c0.1-0.2,0.1-0.3,0.8-0.5c0.6-0.2,0.9-0.2,1.3-0.1c0.8,0.1,1.6-0.1,2.3,0.1c0.7,0.2,0.6,1.2,0.6,1.8
		c0,0.8,0,1.6,0,2.4c0,0.4,0,0.7,0.4,0.7c0.4,0,0.5-0.4,0.7-0.7c0.3-0.4,0.5-0.8,0.8-1.2c0.4-0.6,0.5-1.2,0.9-1.8
		c0.1-0.2,0.2-0.6,0.4-0.8c0.2-0.1,0.4-0.1,0.6-0.1h0.4c0.3,0,0.7,0,1,0c0.5,0,1.1-0.1,1.5,0c2.1,0.3-2.7,4.9-2.4,5.7
		c0.2,0.6,1.3,1.2,1.7,1.6C22.7,18.7,24.3,19.9,23.1,20.7z"/>
</g>
</svg>
